{"title":"Star.Wars.Episode.VII.The.Force.Awakens.2015.720p.BRRip.XviD.AC3","uid":13993759,"size":4617920386,"categoryP":"video","categoryS":"movies","magnet":"?xt=urn:btih:4604acb8a37595e02f2606a0e8d9a970115d0ebd&amp;dn=Star.Wars.Episode.VII.The.Force.Awakens.2015.720p.BRRip.XviD.AC3&amp;tr=udp%3A%2F%2Ftracker.leechers-paradise.org%3A6969&amp;tr=udp%3A%2F%2Fzer0day.ch%3A1337&amp;tr=udp%3A%2F%2Fopen.demonii.com%3A1337&amp;tr=udp%3A%2F%2Ftracker.coppersurfer.tk%3A6969&amp;tr=udp%3A%2F%2Fexodus.desync.com%3A6969","seeders":0,"leechers":3,"uploader":null,"files":8,"time":1458724412,"description":"Video\r\nID                                       : 0\r\nFormat                                   : MPEG-4 Visual\r\nFormat profile                           :   \r\nFormat settings, BVOP                    : No\r\nFormat settings, QPel                    : No\r\nFormat settings, GMC                     : No warppoints\r\nFormat settings, Matrix                  : Default (H.263)\r\nCodec ID                                 : XVID\r\nCodec ID/Hint                            : XviD\r\nDuration                                 : 2h 18mn\r\nBit rate                                 : 3 792 Kbps\r\nWidth                                    : 1 280 pixels\r\nHeight                                   : 536 pixels\r\nDisplay aspect ratio                     : 2.40:1\r\nFrame rate                               : 23.976 fps\r\nColor space                              : YUV\r\nChroma subsampling                       : 4:2:0\r\nBit depth                                : 8 bits\r\nScan type                                : Progressive\r\nCompression mode                         : Lossy\r\nBits/(Pixel*Frame)                       : 0.230\r\nStream size                              : 3.66 GiB (85%)\r\nWriting library                          : Lavc56.60.100\r\n\r\nAudio\r\nID                                       : 1\r\nFormat                                   : AC-3\r\nFormat/Info                              : Audio Coding 3\r\nMode extension                           : CM (complete main)\r\nFormat settings, Endianness              : Big\r\nCodec ID                                 : 2000\r\nDuration                                 : 2h 18mn\r\nBit rate mode                            : Constant\r\nBit rate                                 : 640 Kbps\r\nChannel(s)                               : 6 channels\r\nChannel positions                        : Front: L C R, Side: L R, LFE\r\nSampling rate                            : 48.0 KHz\r\nFrame rate                               : 31.250 fps (1536 spf)\r\nCompression mode                         : Lossy\r\nStream size                              : 632 MiB (14%)\r\nAlignment                                : Aligned on interleaves\r\nInterleave, duration                     : 42 ms (1.00 video frame)\r\nInterleave, preload duration             : 512 ms","torrent":{"xt":"urn:btih:4604acb8a37595e02f2606a0e8d9a970115d0ebd","amp;dn":"Star.Wars.Episode.VII.The.Force.Awakens.2015.720p.BRRip.XviD.AC3","amp;tr":["udp%3A%2F%2Ftracker.leechers-paradise.org%3A6969","udp%3A%2F%2Fzer0day.ch%3A1337","udp%3A%2F%2Fopen.demonii.com%3A1337","udp%3A%2F%2Ftracker.coppersurfer.tk%3A6969","udp%3A%2F%2Fexodus.desync.com%3A6969"],"infoHash":"4604acb8a37595e02f2606a0e8d9a970115d0ebd","infoHashBuffer":{"type":"Buffer","data":[70,4,172,184,163,117,149,224,47,38,6,160,232,217,169,112,17,93,14,189]},"announce":[],"urlList":[]}}